<?xml version="1.0" encoding="iso-8859-1"?>
<!-- Generator: Adobe Illustrator 19.1.0, SVG Export Plug-In . SVG Version: 6.00 Build 0)  -->
<svg version="1.1" id="Layer_1" xmlns="http://www.w3.org/2000/svg" xmlns:xlink="http://www.w3.org/1999/xlink" x="0px" y="0px"
	 viewBox="0 0 200 200" style="enable-background:new 0 0 200 200;" xml:space="preserve">
<g>
	<polygon style="fill:#2C3E50;" points="71.032,119.628 67.747,129.868 64.462,119.628 59.546,119.628 65.777,136.453 
		71.074,136.453 76.994,119.628 	"/>
	<g>
		<path style="fill:#2C3E50;" d="M49.876,122.987v3.342h8.033v3.366h-8.033v3.392h9.164v3.366H45.597v-16.832h13.179v3.366H49.876z"
			/>
		<path style="fill:#2C3E50;" d="M81.971,122.987v3.342h8.033v3.366h-8.033v3.392h9.164v3.366H77.691v-16.832H90.87v3.366H81.971z"
			/>
		<path style="fill:#2C3E50;" d="M99.751,131.716h-0.12h-3.245v4.737h-4.282v-16.832h7.528c4.45,0,6.996,2.115,6.996,5.865
			c0,2.576-1.081,4.426-3.052,5.413l3.533,5.554h-4.858L99.751,131.716z M99.631,128.35c1.85,0,2.934-0.937,2.934-2.717
			c0-1.756-1.084-2.646-2.934-2.646h-3.245v5.363H99.631z"/>
		<path style="fill:#2C3E50;" d="M115.051,119.621c4.306,0,6.782,2.115,6.782,5.865c0,3.944-2.476,6.229-6.782,6.229h-3.052v4.737
			h-4.282v-16.832H115.051z M111.999,128.35h2.837c1.874,0,2.958-0.937,2.958-2.717c0-1.756-1.084-2.646-2.958-2.646h-2.837V128.35z
			"/>
		<path style="fill:#2C3E50;" d="M138.399,129.384c0,4.45-2.958,7.263-7.672,7.263c-4.737,0-7.766-2.814-7.766-7.263v-9.763h4.279
			v9.763c0,2.285,1.469,3.68,3.513,3.68c2.018,0,3.389-1.395,3.389-3.68v-9.763h4.256V129.384z"/>
		<path style="fill:#2C3E50;" d="M147.645,119.621c3.777,0,6.18,1.636,6.18,4.209c0,1.777-1.104,3.196-2.884,3.701
			c2.115,0.411,3.463,2.071,3.463,4.259c0,2.861-2.502,4.664-6.47,4.664h-8.247v-16.832H147.645z M143.942,126.352h3.463
			c1.251,0,2.044-0.673,2.044-1.753c0-1.084-0.793-1.709-2.044-1.709h-3.463V126.352z M143.942,133.158h3.463
			c1.589,0,2.573-0.696,2.573-1.897c0-1.131-0.984-1.83-2.573-1.83h-3.463V133.158z"/>
	</g>
	<path style="fill:#14A085;" d="M71.074,136.453c0,0-0.386-1.081-2.007-2.51c-3.691-3.253-9.277-4.694-9.277-4.694l11.569-9.093
		l3.474,1.848L71.074,136.453z"/>
	<path style="fill:#35495E;" d="M71.074,136.453c0,0-0.048-0.957-1.41-2.282c-4.46-4.338-10.118-5.996-10.118-5.996l11.486-8.547
		h5.962L71.074,136.453z"/>
	<polygon style="fill:#2C3E50;" points="103.999,63.353 95.594,89.552 87.19,63.353 74.614,63.353 90.556,106.397 104.107,106.397 
		119.252,63.353 	"/>
	<path style="fill:#14A085;" d="M104.107,106.398c0,0-0.988-2.767-5.134-6.421c-9.442-8.323-23.734-12.009-23.734-12.009
		l29.597-23.262l8.889,4.728L104.107,106.398z"/>
	<path style="fill:#35495E;" d="M104.107,106.398c0,0-0.122-2.449-3.607-5.839c-11.41-11.098-25.885-15.34-25.885-15.34
		l29.384-21.866h15.253L104.107,106.398z"/>
</g>
</svg>
