<?xml version="1.0" encoding="iso-8859-1"?>
<!-- Generator: Adobe Illustrator 19.1.0, SVG Export Plug-In . SVG Version: 6.00 Build 0)  -->
<svg version="1.1" id="Layer_1" xmlns="http://www.w3.org/2000/svg" xmlns:xlink="http://www.w3.org/1999/xlink" x="0px" y="0px"
	 viewBox="0 0 200 200" style="enable-background:new 0 0 200 200;" xml:space="preserve">
<g>
	<polygon style="fill:#2C3E50;" points="54.068,86.513 48.859,102.75 43.65,86.513 35.855,86.513 45.736,113.191 54.135,113.191 
		63.521,86.513 	"/>
	<g>
		<path style="fill:#2C3E50;" d="M20.522,91.838v5.3h12.737v5.337H20.522v5.379h14.53v5.337H13.737v-26.69h20.896v5.337H20.522z"/>
		<path style="fill:#2C3E50;" d="M71.412,91.838v5.3h12.737v5.337H71.412v5.379h14.53v5.337H64.627v-26.69h20.896v5.337H71.412z"/>
		<path style="fill:#2C3E50;" d="M99.606,105.679h-0.191h-5.146v7.512h-6.79v-26.69h11.936c7.055,0,11.093,3.353,11.093,9.3
			c0,4.084-1.714,7.018-4.839,8.583l5.602,8.807h-7.703L99.606,105.679z M99.415,100.342c2.934,0,4.652-1.486,4.652-4.308
			c0-2.785-1.718-4.196-4.652-4.196h-5.146v8.504H99.415z"/>
		<path style="fill:#2C3E50;" d="M123.865,86.501c6.827,0,10.753,3.353,10.753,9.3c0,6.254-3.926,9.878-10.753,9.878h-4.839v7.512
			h-6.79v-26.69H123.865z M119.026,100.342h4.499c2.971,0,4.69-1.486,4.69-4.308c0-2.785-1.718-4.196-4.69-4.196h-4.499V100.342z"/>
		<path style="fill:#2C3E50;" d="M160.887,101.982c0,7.055-4.69,11.517-12.164,11.517c-7.512,0-12.313-4.461-12.313-11.517v-15.48
			h6.785v15.48c0,3.623,2.329,5.835,5.57,5.835c3.199,0,5.374-2.212,5.374-5.835v-15.48h6.748V101.982z"/>
		<path style="fill:#2C3E50;" d="M175.548,86.501c5.989,0,9.798,2.594,9.798,6.674c0,2.818-1.751,5.067-4.573,5.868
			c3.353,0.652,5.491,3.283,5.491,6.753c0,4.536-3.968,7.395-10.26,7.395h-13.077v-26.69H175.548z M169.675,97.175h5.491
			c1.984,0,3.241-1.066,3.241-2.78c0-1.718-1.257-2.71-3.241-2.71h-5.491V97.175z M169.675,107.966h5.491
			c2.519,0,4.08-1.104,4.08-3.008c0-1.793-1.56-2.901-4.08-2.901h-5.491V107.966z"/>
	</g>
	<path style="fill:#14A085;" d="M54.135,113.192c0,0-0.613-1.715-3.182-3.98c-5.852-5.159-14.711-7.443-14.711-7.443l18.344-14.418
		l5.509,2.93L54.135,113.192z"/>
	<path style="fill:#35495E;" d="M54.135,113.192c0,0-0.076-1.518-2.236-3.619c-7.072-6.878-16.043-9.507-16.043-9.507l18.212-13.553
		h9.454L54.135,113.192z"/>
</g>
</svg>
